<?xml version="1.0" encoding="UTF-8" standalone="no"?>
<!DOCTYPE svg PUBLIC "-//W3C//DTD SVG 1.1//EN" "http://www.w3.org/Graphics/SVG/1.1/DTD/svg11.dtd">
<svg version="1.1" xmlns="http://www.w3.org/2000/svg" xmlns:xlink="http://www.w3.org/1999/xlink" preserveAspectRatio="xMidYMid meet" viewBox="0 0 640 640" width="85" height="85"><defs><path d="" id="azEyDJ7A1"></path><path d="M637.61 320C637.61 495.72 494.76 638.38 318.8 638.38C142.85 638.38 0 495.72 0 320C0 144.28 142.85 1.62 318.8 1.62C494.76 1.62 637.61 144.28 637.61 320Z" id="auzUKH2P3"></path><path d="M278.4 416.86L260.09 416.86L234.73 414.05L217.83 408.41L198.11 401.37L182.62 388.7L174.17 371.79L171.35 354.89L175.58 371.79L176.99 391.51L178.4 411.23L179.8 430.95L181.21 447.85L182.62 466.16L182.62 487.29L182.62 504.19L199.52 499.96L216.42 499.96L234.73 497.15L260.09 497.15L281.21 497.15L300.93 497.15L330.51 495.74L353.04 495.74L375.58 494.33L392.48 494.33L410.79 494.33L430.51 490.1L447.41 484.47L467.13 471.79L484.03 460.53L495.3 447.85L499.52 426.72L503.75 398.55L507.97 376.02L513.61 350.67L517.83 332.36L519.24 312.64L519.24 295.74L517.83 277.43L510.79 259.12L499.52 243.62L485.44 230.95L468.54 221.09L446 211.23L427.69 205.6L410.79 201.37L391.07 195.74L369.95 190.1L351.64 187.29L329.1 185.88L309.38 184.47L288.26 184.47L267.13 184.47L250.23 184.47L226.28 184.47L205.16 183.06L184.03 178.84L161.5 170.39L147.41 160.53L138.96 142.22L131.92 123.91L127.69 104.19L130.51 121.09L130.51 139.4L131.92 157.71L133.33 174.61L134.73 191.51L137.55 209.82L144.59 226.72L161.5 236.58L178.4 247.85L196.71 254.89L216.42 260.53L237.55 263.34L257.27 264.75L274.17 266.16L295.3 268.98L312.2 270.39L330.51 274.61L348.82 280.24L364.31 288.7L374.17 302.78L381.21 319.68L382.62 336.58L379.8 354.89L374.17 370.39L364.31 384.47L351.64 395.74L336.14 402.78L322.06 412.64L305.16 419.68L288.26 422.5L268.54 421.09" id="j2cQT0sTx0"></path><linearGradient id="gradientbsSwgYCAE" gradientUnits="userSpaceOnUse" x1="323.47" y1="104.19" x2="323.47" y2="504.19"><stop style="stop-color: #ff1b5c;stop-opacity: 1" offset="0%"></stop><stop style="stop-color: #122245;stop-opacity: 1" offset="100%"></stop></linearGradient></defs><g><g><g><g><use xlink:href="#azEyDJ7A1" opacity="1" fill-opacity="0" stroke="#000000" stroke-width="1" stroke-opacity="1"></use></g></g><g><use xlink:href="#auzUKH2P3" opacity="1" fill="#ffffff" fill-opacity="1"></use></g><g><use xlink:href="#j2cQT0sTx0" opacity="1" fill="url(#gradientbsSwgYCAE)"></use><g><use xlink:href="#j2cQT0sTx0" opacity="1" fill-opacity="0" stroke="#000000" stroke-width="1" stroke-opacity="1"></use></g></g></g></g></svg>